

<svg width="13" height="12" viewBox="0 0 13 12" fill="none" xmlns="http://www.w3.org/2000/svg">
<path d="M6.55226 9.7845C6.59813 9.85112 6.6595 9.90559 6.7311 9.94322C6.8027 9.98085 6.88237 10.0005 6.96326 10.0005C7.04414 10.0005 7.12381 9.98085 7.19541 9.94322C7.26701 9.90559 7.32839 9.85112 7.37426 9.7845L11.8743 3.2845C11.9263 3.20953 11.9569 3.12172 11.9626 3.0306C11.9683 2.93949 11.9489 2.84856 11.9065 2.7677C11.8641 2.68683 11.8004 2.61912 11.7223 2.57193C11.6441 2.52473 11.5545 2.49986 11.4633 2.5H2.46326C2.37218 2.50038 2.28292 2.52557 2.2051 2.57288C2.12727 2.62019 2.06381 2.68782 2.02154 2.7685C1.97927 2.84917 1.9598 2.93985 1.96521 3.03077C1.97062 3.12168 2.00072 3.20941 2.05226 3.2845L6.55226 9.7845Z" fill="#6D6D6D"/>
</svg>
